<svg width="16" height="44" viewBox="0 0 16 44" fill="none" xmlns="http://www.w3.org/2000/svg">
<path d="M11.7733 15.1133C11.42 15.1133 10.9667 15 10.4 14.6667L8.40666 13.4867C8.2 13.3667 7.8 13.3667 7.6 13.4867L5.6 14.6667C4.42 15.3667 3.72666 15.0867 3.41333 14.86C3.10666 14.6333 2.62666 14.0533 2.94 12.72L3.41333 10.6733C3.46666 10.46 3.36 10.0933 3.2 9.93334L1.54666 8.28001C0.719997 7.45334 0.786664 6.74667 0.899997 6.40001C1.01333 6.05334 1.37333 5.44 2.52 5.24667L4.64666 4.89334C4.84666 4.86 5.13333 4.64667 5.22 4.46667L6.4 2.11334C6.93333 1.04 7.63333 0.880005 8 0.880005C8.36666 0.880005 9.06666 1.04 9.6 2.11334L10.7733 4.46C10.8667 4.64 11.1533 4.85334 11.3533 4.88667L13.48 5.24001C14.6333 5.43334 14.9933 6.04667 15.1 6.39334C15.2067 6.74001 15.2733 7.44667 14.4533 8.27334L12.8 9.93334C12.64 10.0933 12.54 10.4533 12.5867 10.6733L13.06 12.72C13.3667 14.0533 12.8933 14.6333 12.5867 14.86C12.42 14.98 12.1533 15.1133 11.7733 15.1133ZM8 12.3933C8.32666 12.3933 8.65333 12.4733 8.91333 12.6267L10.9067 13.8067C11.4867 14.1533 11.8533 14.1533 11.9933 14.0533C12.1333 13.9533 12.2333 13.6 12.0867 12.9467L11.6133 10.9C11.4867 10.3467 11.6933 9.63334 12.0933 9.22667L13.7467 7.57334C14.0733 7.24667 14.22 6.92667 14.1533 6.70667C14.08 6.48667 13.7733 6.30667 13.32 6.23334L11.1933 5.88C10.68 5.79334 10.12 5.38 9.88666 4.91334L8.71333 2.56667C8.5 2.14 8.23333 1.88667 8 1.88667C7.76666 1.88667 7.5 2.14 7.29333 2.56667L6.11333 4.91334C5.88 5.38 5.32 5.79334 4.80666 5.88L2.68666 6.23334C2.23333 6.30667 1.92666 6.48667 1.85333 6.70667C1.78 6.92667 1.93333 7.25334 2.26 7.57334L3.91333 9.22667C4.31333 9.62667 4.52 10.3467 4.39333 10.9L3.92 12.9467C3.76666 13.6067 3.87333 13.9533 4.01333 14.0533C4.15333 14.1533 4.51333 14.1467 5.1 13.8067L7.09333 12.6267C7.34666 12.4733 7.67333 12.3933 8 12.3933Z" fill="#ABABAB"/>
<path d="M4.53906 31.9111C4.53906 31.0361 4.83529 30.3161 5.42773 29.751C6.02474 29.1859 6.78125 28.9033 7.69727 28.9033C8.58138 28.9033 9.32194 29.1699 9.91895 29.7031C10.5205 30.2318 10.8213 30.888 10.8213 31.6719C10.8213 32.1868 10.6755 32.6927 10.3838 33.1895C10.0921 33.6862 9.54297 34.3675 8.73633 35.2334L6.36426 37.7832V37.8926H10.9854V39H4.60059V38.1523L8.01172 34.4268C8.64518 33.7386 9.06673 33.2145 9.27637 32.8545C9.486 32.4945 9.59082 32.1162 9.59082 31.7197C9.59082 31.2275 9.40397 30.8151 9.03027 30.4824C8.66113 30.1452 8.2054 29.9766 7.66309 29.9766C7.08431 29.9766 6.61719 30.1543 6.26172 30.5098C5.90625 30.8652 5.72852 31.3324 5.72852 31.9111V31.918H4.53906V31.9111Z" fill="#ABABAB"/>
</svg>
