<svg width="16" height="44" viewBox="0 0 16 44" fill="none" xmlns="http://www.w3.org/2000/svg">
<path d="M11.7733 15.1133C11.42 15.1133 10.9667 15 10.4 14.6667L8.40666 13.4867C8.2 13.3667 7.8 13.3667 7.6 13.4867L5.6 14.6667C4.42 15.3667 3.72666 15.0867 3.41333 14.86C3.10666 14.6333 2.62666 14.0533 2.94 12.72L3.41333 10.6733C3.46666 10.46 3.36 10.0933 3.2 9.93334L1.54666 8.28001C0.719997 7.45334 0.786664 6.74667 0.899997 6.40001C1.01333 6.05334 1.37333 5.44 2.52 5.24667L4.64666 4.89334C4.84666 4.86 5.13333 4.64667 5.22 4.46667L6.4 2.11334C6.93333 1.04 7.63333 0.880005 8 0.880005C8.36666 0.880005 9.06666 1.04 9.6 2.11334L10.7733 4.46C10.8667 4.64 11.1533 4.85334 11.3533 4.88667L13.48 5.24001C14.6333 5.43334 14.9933 6.04667 15.1 6.39334C15.2067 6.74001 15.2733 7.44667 14.4533 8.27334L12.8 9.93334C12.64 10.0933 12.54 10.4533 12.5867 10.6733L13.06 12.72C13.3667 14.0533 12.8933 14.6333 12.5867 14.86C12.42 14.98 12.1533 15.1133 11.7733 15.1133ZM8 12.3933C8.32666 12.3933 8.65333 12.4733 8.91333 12.6267L10.9067 13.8067C11.4867 14.1533 11.8533 14.1533 11.9933 14.0533C12.1333 13.9533 12.2333 13.6 12.0867 12.9467L11.6133 10.9C11.4867 10.3467 11.6933 9.63334 12.0933 9.22667L13.7467 7.57334C14.0733 7.24667 14.22 6.92667 14.1533 6.70667C14.08 6.48667 13.7733 6.30667 13.32 6.23334L11.1933 5.88C10.68 5.79334 10.12 5.38 9.88666 4.91334L8.71333 2.56667C8.5 2.14 8.23333 1.88667 8 1.88667C7.76666 1.88667 7.5 2.14 7.29333 2.56667L6.11333 4.91334C5.88 5.38 5.32 5.79334 4.80666 5.88L2.68666 6.23334C2.23333 6.30667 1.92666 6.48667 1.85333 6.70667C1.78 6.92667 1.93333 7.25334 2.26 7.57334L3.91333 9.22667C4.31333 9.62667 4.52 10.3467 4.39333 10.9L3.92 12.9467C3.76666 13.6067 3.87333 13.9533 4.01333 14.0533C4.15333 14.1533 4.51333 14.1467 5.1 13.8067L7.09333 12.6267C7.34666 12.4733 7.67333 12.3933 8 12.3933Z" fill="#ABABAB"/>
<path d="M6.61719 34.4541V33.4014H7.81348C8.37402 33.4014 8.83203 33.2373 9.1875 32.9092C9.54753 32.5811 9.72754 32.1618 9.72754 31.6514C9.72754 31.1501 9.55436 30.7467 9.20801 30.4414C8.86165 30.1315 8.40365 29.9766 7.83398 29.9766C7.26432 29.9766 6.80404 30.127 6.45312 30.4277C6.10221 30.724 5.90169 31.1364 5.85156 31.665H4.65527C4.71908 30.8083 5.03809 30.1338 5.6123 29.6416C6.18652 29.1494 6.94303 28.9033 7.88184 28.9033C8.44694 28.9033 8.96647 29.0195 9.44043 29.252C9.91895 29.4798 10.2949 29.792 10.5684 30.1885C10.8418 30.585 10.9785 31.0179 10.9785 31.4873C10.9785 32.0752 10.8258 32.5719 10.5205 32.9775C10.2152 33.3831 9.79134 33.652 9.24902 33.7842V33.8936C9.91895 33.9801 10.4453 34.2422 10.8281 34.6797C11.2109 35.1126 11.4023 35.6663 11.4023 36.3408C11.4023 37.152 11.0674 37.8379 10.3975 38.3984C9.72754 38.9544 8.90495 39.2324 7.92969 39.2324C6.92708 39.2324 6.10905 38.9772 5.47559 38.4668C4.84212 37.9518 4.5026 37.2728 4.45703 36.4297H5.64648C5.70117 36.9538 5.93359 37.373 6.34375 37.6875C6.75391 38.002 7.27799 38.1592 7.91602 38.1592C8.56315 38.1592 9.09408 37.986 9.50879 37.6396C9.92806 37.2933 10.1377 36.849 10.1377 36.3066C10.1377 35.737 9.9349 35.2858 9.5293 34.9531C9.1237 34.6204 8.56999 34.4541 7.86816 34.4541H6.61719Z" fill="#ABABAB"/>
</svg>
