<svg width="16" height="44" viewBox="0 0 16 44" fill="none" xmlns="http://www.w3.org/2000/svg">
<path d="M11.7733 15.1133C11.42 15.1133 10.9667 15 10.4 14.6667L8.40666 13.4867C8.2 13.3667 7.8 13.3667 7.6 13.4867L5.6 14.6667C4.42 15.3667 3.72666 15.0867 3.41333 14.86C3.10666 14.6333 2.62666 14.0533 2.94 12.72L3.41333 10.6733C3.46666 10.46 3.36 10.0933 3.2 9.93334L1.54666 8.28001C0.719997 7.45334 0.786664 6.74667 0.899997 6.40001C1.01333 6.05334 1.37333 5.44001 2.52 5.24667L4.64666 4.89334C4.84666 4.86 5.13333 4.64667 5.22 4.46667L6.4 2.11334C6.93333 1.04 7.63333 0.880005 8 0.880005C8.36666 0.880005 9.06666 1.04 9.6 2.11334L10.7733 4.46C10.8667 4.64 11.1533 4.85334 11.3533 4.88667L13.48 5.24001C14.6333 5.43334 14.9933 6.04667 15.1 6.39334C15.2067 6.74001 15.2733 7.44667 14.4533 8.27334L12.8 9.93334C12.64 10.0933 12.54 10.4533 12.5867 10.6733L13.06 12.72C13.3667 14.0533 12.8933 14.6333 12.5867 14.86C12.42 14.98 12.1533 15.1133 11.7733 15.1133Z" fill="#ABABAB"/>
<path d="M7.85449 39.2324C6.92025 39.2324 6.14779 38.9704 5.53711 38.4463C4.92643 37.9176 4.59375 37.2272 4.53906 36.375H5.74902C5.80371 36.9082 6.02474 37.3389 6.41211 37.667C6.80404 37.9906 7.28939 38.1523 7.86816 38.1523C8.52897 38.1523 9.0599 37.945 9.46094 37.5303C9.86654 37.1156 10.0693 36.571 10.0693 35.8965C10.0693 35.222 9.86654 34.6751 9.46094 34.2559C9.0599 33.832 8.53581 33.6201 7.88867 33.6201C7.44206 33.6201 7.04102 33.7181 6.68555 33.9141C6.33008 34.1055 6.05208 34.3766 5.85156 34.7275H4.69629L5.23633 29.1357H10.7393V30.2363H6.2002L5.91992 33.4014H6.0293C6.50781 32.8408 7.2028 32.5605 8.11426 32.5605C9.05306 32.5605 9.81868 32.8682 10.4111 33.4834C11.0036 34.0986 11.2998 34.8916 11.2998 35.8623C11.2998 36.8649 10.9808 37.6784 10.3428 38.3027C9.70475 38.9225 8.87533 39.2324 7.85449 39.2324Z" fill="#ABABAB"/>
</svg>
